<svg version="1" xmlns="http://www.w3.org/2000/svg" width="933.333" height="933.333"
     viewBox="0 0 700.000000 700.000000">
    <path d="M0 350v350h700V0H0v350zm635 0v285H65V65h570v285z"/>
    <path d="M143.5 145.8c-17.1 17.9-31 33.1-31 33.7 0 .6 47.4 49.7 105.3 108.9C275.6 347.7 323 396.6 323 397.1c0 .4-11.5 12.8-25.6 27.4L271.8 451l-62.6-61.3c-34.5-33.7-67.5-65.8-73.3-71.5L125.3 308l-15.6 16.6C101 333.7 94 341.5 94 341.9c0 .5 31.5 33.1 70.1 72.5 38.5 39.5 69.9 72.1 69.7 72.6-.2.5-12.8 13.7-28 29.3-15.3 15.7-27.8 28.8-27.8 29.1 0 .3 29 .7 64.5.8l64.5.3-15 15.7c-8.3 8.6-15 15.9-15 16.2 0 .3 68.2.6 151.5.6H580V269.6l-16.2 17c-8.9 9.3-20.2 20.9-25 25.9l-8.8 9v-128L509.3 215c-11.4 11.8-25 25.9-30.3 31.2l-9.5 9.7-40.1-39.2c-22.1-21.6-55-53.7-73.1-71.4l-33-32.3-16.3 17-16.2 17 62.8 64.2c34.5 35.4 66.4 68 70.8 72.5l8 8.2-18 18.3c-9.8 10.1-18.2 18.3-18.6 18.3-.3 0-45.5-43.9-100.4-97.5-54.9-53.6-104.6-102.1-110.4-107.7l-10.6-10.1-30.9 32.6zM500 352.7c-.5 1-9.5 10.5-19.8 21.2l-18.8 19.3-21.5-21-21.4-21.1 41.3-.1c39 0 41.2.1 40.2 1.7zM387.9 463c0 .3-12.3 13.1-27.4 28.5l-27.4 28v-113l27.4 28c15.1 15.4 27.4 28.2 27.4 28.5z"/>
</svg>
